<?xml version="1.0" encoding="UTF-8"?>
<svg width="102px" height="27px" viewBox="0 0 102 27" version="1.1" xmlns="http://www.w3.org/2000/svg" xmlns:xlink="http://www.w3.org/1999/xlink">
    <!-- Generator: sketchtool 55.2 (78181) - https://sketchapp.com -->
    <title>AE9179ED-2521-4D96-BAF4-D126C2D0E0D3</title>
    <desc>Created with sketchtool.</desc>
    <g id="Watchdogs-Design" stroke="none" stroke-width="1" fill="none" fill-rule="evenodd">
        <g id="Wydarzenia---Lista" transform="translate(-1089.000000, -1668.000000)">
            <g id="Group-2" transform="translate(0.000000, 1210.000000)">
                <g id="mm-logo" transform="translate(1089.000000, 457.000000)">
                    <g id="Layer_1">
                        <path d="M18.288,23.109 C18.286,23.118 17.843,26.118 14.159,27.507 C14.647,27.545 15.136,27.541 15.616,27.486 C16.926,27.342 18.171,26.847 19.149,25.958 C20.128,25.067 20.843,23.781 21.096,22.055 C21.156,21.654 21.191,21.227 21.198,20.777 L21.206,20.777 L21.213,20.773 C21.215,20.78 22.139,23.288 20.206,27.147 C21.658,25.904 22.738,24.486 23.328,22.857 C23.921,21.216 24.014,19.366 23.485,17.27 C23.255,16.356 23.203,15.791 23.275,15.506 C23.346,15.219 23.537,15.209 23.792,15.408 C24.042,15.604 24.354,16.006 24.676,16.547 C25.742,18.341 26.905,21.68 26.174,24.181 C26.487,23.687 26.73,23.013 26.898,22.226 C27.25,20.563 27.259,18.39 26.852,16.335 C26.445,14.281 25.619,12.343 24.301,11.149 C23.663,10.572 22.911,10.169 22.033,10.009 L21.99,10.001 L22.035,9.991 L22.035,9.991 L22.035,9.991 C22.251,9.94 22.521,9.925 22.827,9.947 C23.134,9.969 23.475,10.03 23.836,10.129 C25.691,10.641 28.033,12.198 28.426,15.064 L28.426,15.064 C28.481,15.471 28.549,15.701 28.614,15.789 C28.733,15.942 28.847,15.594 28.875,14.959 C28.905,14.312 28.843,13.369 28.602,12.354 C27.975,9.706 26.138,6.56 21.555,6.84 L21.48,6.845 L21.555,6.822 L21.555,6.822 L21.555,6.822 C21.806,6.744 22.094,6.666 22.406,6.599 C22.719,6.53 23.056,6.472 23.408,6.429 C25.225,6.212 27.443,6.458 28.661,8.345 C28.845,8.631 28.98,8.775 29.065,8.811 C29.186,8.861 29.192,8.664 29.085,8.328 C28.971,7.982 28.734,7.489 28.366,6.961 C27.141,5.209 24.468,3.076 20.107,4.628 C20.089,7.267 19.64,7.552 19.512,7.582 L20.744,8.263 L20.746,8.264 L20.746,8.266 L22.323,13.089 L22.324,13.091 L22.324,13.092 L22.627,18.755 L22.391,18.768 L22.39,18.77 C22.386,18.78 20.607,21.435 19.85,19.666 C19.1,17.917 15.183,19.338 15.172,19.342 L15.172,19.342 L15.171,19.342 L11.623,19.979 L11.623,19.979 C11.604,19.984 7.015,20.967 3.571,16.952 C3.714,17.559 3.889,18.107 4.096,18.598 C4.306,19.099 4.551,19.537 4.824,19.922 C6.235,21.9 8.459,22.388 11.249,21.728 L11.286,21.719 L11.253,21.744 L11.253,21.744 L11.253,21.746 C11.074,21.893 10.867,22.027 10.636,22.142 C10.407,22.258 10.152,22.353 9.878,22.426 C8.476,22.8 6.568,22.589 4.74,21.275 C4.816,21.454 4.897,21.626 4.986,21.788 C6.107,23.866 8.175,24.641 10.236,24.707 C12.298,24.77 14.353,24.123 15.446,23.354 C15.544,23.285 15.634,23.217 15.716,23.146 L15.774,23.094 L15.725,23.16 C15.176,23.865 14.41,24.667 13.066,25.159 C11.732,25.646 9.827,25.829 6.999,25.301 C15.229,30.104 18.264,23.123 18.274,23.105 L18.281,23.107 L18.288,23.109 L18.288,23.109 Z" id="Shape" fill="#4D4D4D"></path>
                        <path d="M30.18,13.164 C30.102,12.551 29.87,11.665 29.418,10.725 C28.248,8.287 25.608,5.478 20.413,6.067 C20.669,5.983 20.961,5.897 21.276,5.816 C21.625,5.728 22.004,5.644 22.403,5.577 C24.459,5.228 27.055,5.284 28.776,6.961 C29.039,7.217 29.222,7.345 29.328,7.372 C29.5,7.416 29.484,7.219 29.288,6.89 C29.098,6.571 28.739,6.124 28.224,5.654 C26.507,4.096 23.051,2.293 18.271,4.111 L18.264,4.114 L18.264,4.114 C17.872,4.302 17.75,4.427 17.529,4.578 C17.278,4.748 17,4.928 17,4.502 L17,4.443 C17,3.12 19.877,3.141 20.757,2.897 C21.55,2.56 22.158,2.153 22.172,1.513 C20.649,2.63 19.991,2.218 18.422,2.101 C16.638,2.255 15.288,3.24 15.134,3.822 C14.412,3.292 15.786,2.358 16.15,2.081 C16.828,1.568 18.609,1.421 19.801,1.699 C18.734,0.105 12.822,1.206 12.822,3.318 C12.822,3.559 12.751,3.84 12.615,3.941 C12.615,1.834 10.923,1.185 8.763,1.185 C8.879,1.683 9.899,3.38 10.334,3.497 L10.346,3.535 L9.593,3.733 C9.546,3.159 9.09,2.577 8.468,2.577 L8.438,2.577 C7.75,2.577 7.38,2.778 6.838,2.904 C6.91,2.95 7.335,2.992 7.592,3.157 C7.813,3.298 7.964,3.458 8.13,3.654 C8.24,3.783 8.484,4.1 8.546,4.262 C8.702,4.672 8.116,4.295 7.934,4.295 L7.815,4.295 C7.345,4.295 6.698,5.319 6.69,5.717 L6.666,5.8 L7.601,6.064 C7.614,6.047 7.627,6.032 7.638,6.014 L7.622,6.07 L7.601,6.064 C7.067,6.797 6.222,6.685 6.093,7.964 C6.02,8.679 5.805,8.618 5.324,9.003 C5,9.262 4.651,9.554 4.355,9.843 C3.726,10.46 3.362,11.149 2.665,11.768 C2.213,12.167 0.911,12.97 0.911,13.629 L0.911,13.837 C0.911,14.098 1.148,14.41 1.148,14.695 L1.148,14.992 C1.148,15.344 0.76,15.971 1.356,15.971 L1.741,15.971 C2.868,15.971 2.983,15.086 3.756,15.494 C3.72,15.55 2.626,16.947 3.253,16.947 L3.312,16.947 C4.412,16.947 4.937,16.764 5.549,16.251 C6.477,15.475 5.96,14.936 6.741,14.51 C7.072,14.33 7.368,14.197 7.707,14.022 C8.122,13.809 8.341,14.047 8.936,14.012 C9.833,13.957 10.933,14.028 11.578,13.719 C12.152,14.102 12.585,15.043 12.585,16.03 C12.585,16.678 12.356,17.478 12.167,17.952 C11.791,18.893 11.487,18.699 11.112,19.25 L11.101,19.252 C11.086,19.254 5.941,20.554 1.28,17.019 L1.274,17.013 L1.251,16.995 L1.267,17.029 L1.267,17.029 C1.539,17.602 1.842,18.118 2.171,18.572 C2.501,19.028 2.858,19.425 3.241,19.766 C5.202,21.517 7.843,21.806 10.939,20.972 C10.766,21.115 10.561,21.248 10.329,21.367 C10.084,21.494 9.808,21.603 9.506,21.695 C7.951,22.163 5.707,22.11 3.366,21.006 L3.334,20.993 L3.355,21.021 C3.48,21.194 3.61,21.357 3.747,21.512 C5.398,23.387 7.921,23.955 10.315,23.852 C12.709,23.748 14.974,22.973 16.107,22.161 C16.185,22.105 16.259,22.05 16.325,21.994 C15.815,22.684 15.071,23.469 13.651,24.02 C12.188,24.591 10.004,24.911 6.616,24.628 L6.553,24.622 L6.612,24.644 C16.48,28.381 19.073,22.371 19.313,21.746 C19.29,22.152 18.99,24.698 15.27,26.163 L15.226,26.183 L15.273,26.183 C15.859,26.183 16.44,26.135 16.998,26.045 C18.491,25.804 19.844,25.238 20.825,24.317 C21.805,23.397 22.413,22.127 22.413,20.473 C22.413,20.101 22.381,19.71 22.318,19.301 C22.502,19.615 23.679,21.845 22.202,25.371 L22.187,25.404 L22.215,25.379 C23.698,24.085 24.716,22.649 25.122,21.053 C25.527,19.457 25.321,17.7 24.35,15.763 C23.93,14.923 23.776,14.398 23.809,14.127 C23.84,13.868 24.05,13.847 24.363,14.009 C24.683,14.173 25.111,14.525 25.572,15.007 C27.115,16.622 29.039,19.7 28.587,22.116 L28.577,22.168 L28.603,22.123 C28.897,21.627 29.072,20.953 29.133,20.173 C29.256,18.574 28.898,16.522 28.076,14.616 C27.253,12.708 25.97,10.945 24.241,9.923 C23.419,9.436 22.496,9.116 21.475,9.03 C21.706,8.973 21.995,8.942 22.327,8.939 C22.682,8.936 23.087,8.965 23.52,9.031 C25.742,9.364 28.704,10.643 29.641,13.305 C29.776,13.689 29.894,13.904 29.987,13.98 C30.173,14.135 30.258,13.789 30.18,13.164 L30.18,13.164 Z M3.934,11.762 C4.064,11.275 5.919,9.952 6.542,9.807 L6.562,9.835 L3.934,11.762 L3.934,11.762 Z M19.976,8.096 C19.975,8.096 19.975,8.096 19.976,8.096 L19.976,8.096 L19.976,8.096 L19.976,8.096 Z M13.416,4.681 C14.976,4.681 16.713,5.753 18.049,6.94 L18.001,6.938 L18.058,6.958 L18.076,6.965 C18.856,7.66 19.497,8.393 19.882,8.972 C21.238,11.007 22.453,13.75 22.453,17.125 L22.453,17.481 L22.379,18.373 C22.204,18.522 22.014,18.646 21.818,18.727 L21.871,17.065 L21.861,16.207 C21.861,13.012 20.566,10.75 19.135,8.977 C18.052,7.633 15.673,4.77 13.416,4.77 L13.416,4.681 L13.416,4.681 Z M16.036,10.506 C16.474,11.075 17.414,12.921 17.234,14.02 L16.793,16.504 C16.755,16.444 16.931,15.479 16.942,15.23 C16.968,14.731 16.961,14.352 16.871,13.877 C16.726,13.129 16.35,12.337 16.053,11.732 C15.726,11.068 15.4,10.423 14.948,9.874 C14.549,9.388 13.41,8.647 13.326,8.533 C14.238,8.745 15.521,9.835 16.036,10.506 L16.036,10.506 Z M12.062,2.626 C12.262,2.984 12.365,4.017 11.993,4.268 C11.924,4.119 11.837,3.686 11.823,3.49 C11.784,2.99 11.891,2.783 11.503,2.63 C11.138,2.486 10.364,2.225 10.364,1.739 C10.912,1.752 11.853,2.249 12.062,2.626 L12.062,2.626 Z M8.469,3.03 C8.915,3.13 9.572,3.906 9.275,3.98 L8.469,3.03 L8.469,3.03 Z M7.867,8.781 L9.002,7.669 L9.135,7.551 L9.724,8.103 C9.504,8.206 9.065,8.295 8.907,8.379 C8.7,8.489 8.018,8.68 7.867,8.781 L7.867,8.781 Z M9.771,13.422 L9.765,13.457 L8.379,13.186 C9.665,13.186 10.84,13.012 11.757,12.652 C12.21,12.475 12.63,12.199 12.91,11.85 C13.359,11.29 13.293,10.851 13.505,10.518 L13.541,10.784 L13.534,11.08 C13.534,12.378 11.155,13.645 9.771,13.422 L9.771,13.422 Z" id="Shape" fill="#FFFFFF"></path>
                        <g id="Group" transform="translate(35.000000, 5.000000)" fill="#FFFFFF">
                            <path d="M8.178,1.054 L8.178,8.736 L6.368,8.736 L6.368,6.86 C6.368,5.038 6.434,4.138 6.423,4.138 L6.412,4.138 C6.4,4.138 5.786,5.192 5.72,5.301 L4.82,6.838 L3.865,6.838 L2.965,5.301 C2.899,5.192 2.284,4.138 2.274,4.138 L2.263,4.138 C2.252,4.138 2.318,5.038 2.318,6.86 L2.318,8.736 L0.507,8.736 L0.507,1.054 L2.241,1.054 L3.679,3.381 C4.239,4.292 4.327,4.489 4.337,4.489 L4.348,4.489 C4.359,4.489 4.447,4.291 5.007,3.381 L6.444,1.054 L8.178,1.054 L8.178,1.054 Z" id="Shape"></path>
                            <path d="M16.365,1.054 L16.365,5.324 C16.365,7.629 15.004,8.891 12.973,8.891 C10.932,8.891 9.581,7.629 9.581,5.324 L9.581,1.054 L11.425,1.054 L11.425,5.28 C11.425,6.597 11.963,7.168 12.972,7.168 C13.982,7.168 14.519,6.597 14.519,5.28 L14.519,1.054 L16.365,1.054 L16.365,1.054 Z" id="Shape"></path>
                            <path d="M21.697,3.491 C21.511,2.811 20.918,2.491 20.369,2.491 C19.821,2.491 19.503,2.766 19.503,3.074 C19.503,3.579 20.272,3.765 21.204,4.105 C22.346,4.522 23.542,5.169 23.542,6.487 C23.542,7.891 22.334,8.89 20.546,8.89 C18.943,8.89 17.801,8.001 17.297,6.563 L19.064,6.091 C19.261,6.673 19.81,7.254 20.622,7.254 C21.281,7.254 21.589,6.947 21.589,6.573 C21.589,5.959 20.69,5.805 19.592,5.388 C18.67,5.037 17.605,4.532 17.605,3.182 C17.605,1.985 18.813,0.899 20.481,0.899 C21.951,0.899 23.115,1.799 23.478,3.006 L21.697,3.491 L21.697,3.491 Z" id="Shape"></path>
                            <polygon id="Shape" points="30.411 1.054 30.411 2.777 28.073 2.777 28.073 8.736 26.23 8.736 26.23 2.777 23.924 2.777 23.924 1.054"></polygon>
                            <path d="M35.218,7.53 L32.178,7.53 L31.739,8.737 L29.753,8.737 L32.827,1.055 L34.571,1.055 L37.644,8.737 L35.658,8.737 L35.218,7.53 L35.218,7.53 Z M34.626,5.916 L34.077,4.424 C33.912,3.985 33.715,3.294 33.702,3.294 L33.692,3.294 C33.681,3.294 33.482,3.985 33.319,4.424 L32.77,5.916 L34.626,5.916 L34.626,5.916 Z" id="Shape"></path>
                            <path d="M45.172,1.054 L45.172,8.736 L43.438,8.736 L41.868,6.597 C41.167,5.631 40.135,4.171 40.124,4.171 L40.113,4.171 C40.102,4.171 40.124,5.356 40.124,7.035 L40.124,8.736 L38.28,8.736 L38.28,1.054 L40.014,1.054 L41.648,3.249 C42.143,3.908 43.318,5.565 43.329,5.565 L43.34,5.565 C43.352,5.565 43.329,4.204 43.329,2.811 L43.329,1.054 L45.172,1.054 L45.172,1.054 Z" id="Shape"></path>
                            <path d="M52.393,8.111 C51.944,8.593 51.065,8.89 50.308,8.89 C48.102,8.89 46.324,7.211 46.324,4.895 C46.324,2.58 48.102,0.9 50.308,0.9 C51.8,0.9 53.106,1.691 53.797,2.941 L51.92,3.435 C51.559,2.996 50.911,2.722 50.308,2.722 C49.036,2.722 48.244,3.633 48.244,4.895 C48.244,6.245 49.156,7.09 50.418,7.09 C51.647,7.09 52.185,6.454 52.405,5.883 L52.405,5.872 L50.385,5.872 L50.385,4.391 L53.973,4.391 L53.973,8.736 L52.393,8.736 C52.393,8.232 52.405,8.123 52.405,8.111 L52.393,8.111 L52.393,8.111 Z" id="Shape"></path>
                            <path d="M8.178,11.418 L8.178,19.101 L6.368,19.101 L6.368,17.226 C6.368,15.404 6.434,14.502 6.423,14.502 L6.412,14.502 C6.4,14.502 5.786,15.558 5.72,15.665 L4.82,17.202 L3.865,17.202 L2.965,15.665 C2.899,15.558 2.284,14.502 2.274,14.502 L2.263,14.502 C2.252,14.502 2.318,15.403 2.318,17.226 L2.318,19.101 L0.507,19.101 L0.507,11.418 L2.241,11.418 L3.679,13.745 C4.239,14.656 4.327,14.854 4.337,14.854 L4.348,14.854 C4.359,14.854 4.447,14.656 5.007,13.745 L6.444,11.418 L8.178,11.418 L8.178,11.418 Z" id="Shape"></path>
                            <path d="M14.28,17.895 L11.24,17.895 L10.8,19.101 L8.814,19.101 L11.887,11.418 L13.632,11.418 L16.705,19.101 L14.718,19.101 L14.28,17.895 L14.28,17.895 Z M13.687,16.282 L13.139,14.79 C12.974,14.351 12.776,13.657 12.765,13.657 L12.754,13.657 C12.743,13.657 12.545,14.35 12.38,14.79 L11.832,16.282 L13.687,16.282 L13.687,16.282 Z" id="Shape"></path>
                            <path d="M21.556,19.101 L20.129,16.599 L19.186,16.599 L19.186,19.101 L17.341,19.101 L17.341,11.418 L20.206,11.418 C22.138,11.418 23.301,12.474 23.301,14.053 C23.301,15.085 22.807,15.854 21.918,16.27 L23.618,19.101 L21.556,19.101 L21.556,19.101 Z M19.186,14.964 L20.458,14.964 C21.117,14.964 21.381,14.471 21.381,14.053 C21.381,13.636 21.117,13.143 20.458,13.143 L19.186,13.143 L19.186,14.964 L19.186,14.964 Z" id="Shape"></path>
                            <path d="M29.621,19.101 L27.294,15.909 L26.647,16.556 L26.647,19.101 L24.804,19.101 L24.804,11.418 L26.647,11.418 L26.647,12.67 C26.647,13.942 26.615,14.316 26.626,14.316 L26.638,14.316 C26.648,14.316 26.867,14.052 27.647,13.273 L29.512,11.418 L31.774,11.418 L28.515,14.69 L31.795,19.1 L29.621,19.1 L29.621,19.101 Z" id="Shape"></path>
                            <polygon id="Shape" points="38.499 17.378 38.499 19.101 32.847 19.101 32.847 11.418 38.435 11.418 38.435 13.143 34.69 13.143 34.69 14.403 37.621 14.403 37.621 16.019 34.69 16.019 34.69 17.378"></polygon>
                            <polygon id="Shape" points="45.862 11.418 45.862 13.143 43.525 13.143 43.525 19.101 41.681 19.101 41.681 13.143 39.376 13.143 39.376 11.418"></polygon>
                            <polygon id="Shape" points="46.827 19.101 46.827 11.418 48.671 11.418 48.671 19.101"></polygon>
                            <path d="M57.275,11.418 L57.275,19.101 L55.541,19.101 L53.973,16.962 C53.27,15.994 52.239,14.535 52.228,14.535 L52.216,14.535 C52.205,14.535 52.228,15.721 52.228,17.4 L52.228,19.1 L50.384,19.1 L50.384,11.417 L52.118,11.417 L53.753,13.612 C54.246,14.271 55.421,15.928 55.432,15.928 L55.444,15.928 C55.454,15.928 55.432,14.567 55.432,13.172 L55.432,11.416 L57.275,11.416 L57.275,11.418 Z" id="Shape"></path>
                            <path d="M64.497,18.476 C64.046,18.959 63.169,19.255 62.411,19.255 C60.205,19.255 58.428,17.576 58.428,15.26 C58.428,12.945 60.205,11.266 62.411,11.266 C63.904,11.266 65.209,12.055 65.9,13.307 L64.024,13.802 C63.662,13.363 63.015,13.087 62.411,13.087 C61.138,13.087 60.348,13.998 60.348,15.26 C60.348,16.61 61.259,17.455 62.521,17.455 C63.75,17.455 64.289,16.818 64.508,16.248 L64.508,16.238 L62.488,16.238 L62.488,14.755 L66.077,14.755 L66.077,19.101 L64.497,19.101 C64.497,18.596 64.508,18.487 64.508,18.476 L64.497,18.476 L64.497,18.476 Z" id="Shape"></path>
                        </g>
                    </g>
                </g>
            </g>
        </g>
    </g>
</svg>